<?xml version="1.0" encoding="UTF-8"?>
<svg xmlns="http://www.w3.org/2000/svg" xmlns:xlink="http://www.w3.org/1999/xlink" width="2626" height="2401" viewBox="0 0 2626 2401">
<path fill-rule="nonzero" fill="yellow" fill-opacity="1" d="M 631.542969 16.339844 C 504.042969 94.160156 397.863281 183.851562 307.261719 290.429688 C 117.652344 512.828125 12.085938 783.898438 2.042969 1074.679688 L 0.609375 1114.898438 L 919.542969 1114.898438 L 919.542969 1105.851562 C 919.542969 1058.800781 937.785156 987.808594 961.769531 941.960938 C 994.566406 879.019531 1047.25 821.910156 1104.230469 787.929688 L 1116.53125 780.691406 L 1109.769531 769.019531 C 1069.589844 699.648438 657.984375 1.058594 657.167969 1.058594 C 656.550781 1.261719 645.070312 7.890625 631.542969 16.339844 Z M 631.542969 16.339844 "/>
<path fill-rule="nonzero" fill="yellow" fill-opacity="1" d="M 1955.519531 22.570312 C 1948.761719 34.441406 1846.269531 208.980469 1727.578125 410.480469 C 1608.898438 612.171875 1511.730469 777.871094 1511.53125 778.871094 C 1511.121094 779.878906 1520.339844 786.921875 1531.820312 794.359375 C 1609.308594 845.640625 1665.46875 921.25 1691.300781 1009.328125 C 1698.269531 1033.058594 1704.011719 1066.839844 1705.859375 1093.589844 L 1707.289062 1114.898438 L 2625.609375 1114.898438 L 2624.171875 1074.679688 C 2610.230469 675.320312 2414.679688 313.148438 2084.871094 75.460938 C 2054.730469 53.738281 1971.71875 0.449219 1968.441406 0.859375 C 1968.230469 0.859375 1962.488281 10.710938 1955.519531 22.570312 Z M 1955.519531 22.570312 "/>
<path fill-rule="nonzero" fill="yellow" fill-opacity="1" d="M 1274.160156 860.320312 C 1177.820312 877.410156 1105.261719 933.921875 1070.199219 1019.179688 C 1037.609375 1099.011719 1047.25 1185.890625 1096.851562 1259.890625 C 1109.769531 1278.988281 1145.839844 1314.378906 1165.519531 1327.050781 C 1211.441406 1356.808594 1258.171875 1370.890625 1312.078125 1370.890625 C 1345.910156 1371.089844 1359.230469 1369.078125 1389.980469 1360.03125 C 1432.410156 1347.160156 1465.210938 1327.648438 1497.800781 1295.878906 C 1527.320312 1267.121094 1546.171875 1237.96875 1560.109375 1199.761719 C 1608.691406 1066.230469 1535.308594 917.628906 1398.179688 871.980469 C 1388.128906 868.558594 1372.761719 864.339844 1364.359375 862.53125 C 1343.441406 858.109375 1293.839844 856.898438 1274.160156 860.320312 Z M 1274.160156 860.320312 "/>
<path fill-rule="nonzero" fill="yellow" fill-opacity="1" d="M 1115.511719 1450.519531 C 1113.25 1454.542969 801.882812 1983.8125 737.722656 2092.804688 C 695.496094 2164.394531 660.652344 2224.320312 660.035156 2225.726562 C 658.601562 2229.144531 675.613281 2239.199219 723.785156 2263.128906 C 873.628906 2337.535156 1025.929688 2380.367188 1200.570312 2397.257812 C 1251.609375 2402.082031 1373.578125 2402.082031 1425.640625 2397.058594 C 1598.859375 2380.769531 1752.390625 2337.535156 1902.429688 2263.128906 C 1950.601562 2239.199219 1967.621094 2229.144531 1966.179688 2225.726562 C 1965.359375 2223.515625 1566.671875 1544.832031 1521.78125 1469.222656 L 1509.480469 1448.511719 L 1498.621094 1454.542969 C 1481.808594 1463.992188 1447.171875 1477.871094 1424.210938 1484.503906 C 1388.339844 1495.164062 1355.75 1499.585938 1315.160156 1499.789062 C 1249.558594 1499.988281 1194.628906 1487.722656 1138.058594 1459.769531 C 1126.160156 1453.9375 1115.910156 1449.714844 1115.511719 1450.519531 Z M 1115.511719 1450.519531 "/>
</svg>
